<svg width="178" height="180" viewBox="0 0 178 180" fill="none" xmlns="http://www.w3.org/2000/svg">
<path d="M165.994 55.9757C153.032 26.3099 123.431 5.57812 88.9872 5.57812C54.5435 5.57812 24.942 26.3099 11.9805 55.9757" fill="#CD9F70"/>
<path d="M165.994 55.9757C153.032 26.3099 123.431 5.57812 88.9872 5.57812C54.5435 5.57812 24.942 26.3099 11.9805 55.9757" stroke="#1E305E" stroke-width="9.55403" stroke-linecap="round" stroke-linejoin="round"/>
<path d="M88.9956 48.5283C73.4451 63.7727 63.7969 85.0166 63.7969 108.514C63.7969 110.615 63.8742 112.699 64.0258 114.762C79.4424 129.99 88.9956 151.141 88.9956 174.522C88.9956 151.141 98.5489 129.99 113.966 114.762C114.117 112.699 114.194 110.615 114.194 108.514C114.194 85.0166 104.546 63.7727 88.9956 48.5283Z" fill="#CD9F70" stroke="#1E305E" stroke-width="9.55403" stroke-linecap="round" stroke-linejoin="round"/>
<path d="M5 90.5293C5 136.919 42.6062 174.525 88.9959 174.525C88.9959 151.144 79.4426 129.994 64.026 114.765C48.8559 99.7802 28.0082 90.5293 5 90.5293Z" fill="#CD9F70" stroke="#1E305E" stroke-width="9.55403" stroke-linecap="round" stroke-linejoin="round"/>
<path d="M173 90.5293C173 136.919 135.394 174.525 89.0039 174.525C89.0039 151.144 98.5572 129.994 113.974 114.765C129.144 99.7802 149.992 90.5293 173 90.5293Z" fill="#CD9F70" stroke="#1E305E" stroke-width="9.55403" stroke-linecap="round" stroke-linejoin="round"/>
</svg>
