<svg width="168" height="169" viewBox="0 0 168 169" fill="none" xmlns="http://www.w3.org/2000/svg">
<path d="M25.1603 64.732V38.0095L23.0078 38.1408V21.682L43.7716 21.5508V37.7602H41.6191V53.4577L25.1603 64.732Z" fill="black"/>
<path d="M84.1244 31.1182L24.4844 91.0469L24.9438 146.448L142.741 145.332L142.911 86.2694L84.1244 31.1182Z" fill="#1E305E"/>
<path d="M22.2734 136.719L26.3947 134.449V89.7188L22.5622 92.2781C22.5491 92.2781 22.9822 136.719 22.2734 136.719ZM140.7 92.1337V134.173L144.822 136.444V93.6956L140.7 92.1337Z" fill="black"/>
<path d="M84.5611 37.5206L22.5586 95.5462V80.9119L84.6267 22.125L144.831 84.4688V96.8194L84.5611 37.5206Z" fill="#1E305E"/>
<path d="M16.4716 78.4133L12.8359 85.1202L22.5878 84.9758C22.5878 84.9758 83.4222 25.8083 84.7347 25.7558C86.3228 25.6902 144.795 86.0127 144.795 86.0127L153.444 85.8814L88.5541 15.9777L79.0253 15.3477L16.4716 78.4133Z" fill="black"/>
<path d="M5.22886 83.4397C4.20511 84.6866 5.21574 85.3428 6.04261 85.3428C6.86949 85.3428 16.3982 85.0672 16.3982 85.0672L82.0757 21.1616C82.0757 21.1616 83.5851 19.6128 84.6614 19.6653C85.8295 19.7178 87.3389 21.2009 87.3389 21.2009L153.331 85.8941C153.331 85.8941 160.852 85.9203 162.046 85.6184C163.346 85.3034 162.689 84.0697 161.088 82.3503C159.907 81.0772 93.1926 15.0847 92.0901 13.9428C88.8089 10.5566 87.2076 8.58781 84.1101 8.71906C80.9995 8.85031 79.162 11.1472 76.0514 14.0084C75.1326 14.8747 5.66199 82.9147 5.22886 83.4397Z" fill="#CD9F70"/>
<path d="M122.705 106.589H136.158V95.3938C136.158 94.8992 136.061 94.4093 135.872 93.9523C135.682 93.4953 135.405 93.08 135.055 92.7302C134.705 92.3805 134.29 92.103 133.833 91.9137C133.376 91.7244 132.886 91.627 132.392 91.627H122.705V106.589ZM118.663 106.589V91.627H108.163C107.668 91.627 107.178 91.7244 106.721 91.9137C106.264 92.103 105.849 92.3805 105.499 92.7302C105.149 93.08 104.872 93.4953 104.683 93.9523C104.493 94.4093 104.396 94.8992 104.396 95.3938V106.603H118.663V106.589ZM118.663 110.842H104.396V121.342C104.396 122.341 104.793 123.299 105.499 124.006C106.206 124.712 107.164 125.109 108.163 125.109H118.663V110.842ZM122.705 110.842V125.109H132.392C133.391 125.109 134.349 124.712 135.055 124.006C135.762 123.299 136.158 122.341 136.158 121.342V110.842H122.705ZM48.2209 106.589H61.6741V95.3938C61.6741 94.8992 61.5766 94.4093 61.3873 93.9523C61.198 93.4953 60.9206 93.08 60.5708 92.7302C60.221 92.3805 59.8057 92.103 59.3487 91.9137C58.8917 91.7244 58.4019 91.627 57.9072 91.627H48.2209V106.589ZM44.1653 106.589V91.627H33.6653C33.1706 91.627 32.6808 91.7244 32.2238 91.9137C31.7668 92.103 31.3515 92.3805 31.0017 92.7302C30.6519 93.08 30.3745 93.4953 30.1852 93.9523C29.9959 94.4093 29.8984 94.8992 29.8984 95.3938V106.603H44.1653V106.589ZM44.1653 110.842H29.9116V121.342C29.9116 122.341 30.3084 123.299 31.0149 124.006C31.7213 124.712 32.6794 125.109 33.6784 125.109H44.1784V110.842H44.1653ZM48.2209 110.842V125.109H57.9072C58.9062 125.109 59.8643 124.712 60.5708 124.006C61.2772 123.299 61.6741 122.341 61.6741 121.342V110.842H48.2209Z" fill="#A6CFD5"/>
<path d="M66.0797 140.579C66.0797 140.579 65.8828 108.108 66.0797 99.9048C66.2766 91.7148 73.9678 84.6274 82.8797 84.9292C93.9047 85.3099 99.5747 91.5048 99.9816 99.498C100.388 107.491 100.388 141.078 100.388 141.078L66.0797 140.579Z" fill="#CD9F70"/>
<path d="M70.1638 142.344C70.1638 142.344 70.0063 107.747 70.1638 101.342C70.3606 93.4012 76.3456 89.2275 83.3019 89.6212C91.4 90.0806 95.4031 94.3856 95.7181 100.646C96.0331 106.894 96.0331 142.371 96.0331 142.371L70.1638 142.344Z" fill="#CD9F70"/>
<path d="M91.867 114.134C91.8408 108.438 91.7883 103.411 91.7095 101.875C91.4995 97.7407 88.5595 94.5251 82.8502 94.3282C78.2433 94.1707 74.4502 97.767 74.3452 102.006C74.3058 103.568 74.3189 108.477 74.3452 114.068L91.867 114.134ZM74.3845 120.526C74.437 128.151 74.5027 135.173 74.5027 135.173L91.9195 135.226C91.9195 135.226 91.9195 128.23 91.8933 120.604L74.3845 120.526Z" fill="#CD9F70"/>
<path d="M91.918 117.068C91.8524 118.918 92.6005 120.414 94.7924 120.414C96.9842 120.414 97.7849 119.391 97.9424 117.409C98.0736 115.637 96.853 114.062 94.7924 114.193C92.7449 114.338 91.9705 115.768 91.918 117.068Z" fill="#CD9F70"/>
<path d="M104.507 153.156C104.507 153.156 118.787 153.3 129.104 152.998C139.42 152.696 146.888 153.156 148.424 151.607C149.959 150.071 149.933 136.986 142.78 133.442C136.204 130.187 131.952 133.494 129.694 133.718C126.715 134.019 123.027 132.169 120.323 132.116C109.154 131.88 105.242 140.661 105.242 140.661L104.507 153.156ZM19.0899 152.079C20.2843 153.195 29.4061 153.234 40.418 153.156C51.4299 153.077 60.2893 153.182 60.2893 153.182L62.1268 142.065L59.8955 140.214C59.8955 140.214 60.1449 134.649 53.123 132.746C48.2668 131.434 44.0405 133.599 39.9586 133.665C35.8768 133.744 32.1099 131.893 27.5686 132.969C23.3424 133.967 20.048 136.723 18.7093 142.288C17.7774 146.147 18.0136 151.069 19.0899 152.079Z" fill="#E9EAEF"/>
<path d="M58.9375 164.787L59.0294 153.172H59.8825L59.8694 140.23H105.453L105.295 153.172H106.293V164.485C106.279 164.472 58.9375 164.853 58.9375 164.787Z" fill="#B0B0B0"/>
<path d="M106.292 159.701V164.466L58.9375 164.781L58.9769 159.662L106.292 159.701ZM59.8694 148.125L105.347 148.138V153.152H59.8694V148.125Z" fill="#1E305E"/>
</svg>
