<svg width="86" height="86" viewBox="0 0 86 86" fill="none" xmlns="http://www.w3.org/2000/svg">
<path fill-rule="evenodd" clip-rule="evenodd" d="M42.9816 0.00614292C38.8107 -0.0521235 34.6698 0.719069 30.7994 2.27491C26.9291 3.83075 23.4065 6.14022 20.4364 9.06914C17.4663 11.998 15.1079 15.488 13.4981 19.3362C11.8884 23.1844 11.0594 27.3142 11.0594 31.4855C11.0594 35.6569 11.8884 39.7866 13.4981 43.6349C15.1079 47.4831 17.4663 50.973 20.4364 53.902C23.4065 56.8309 26.9291 59.1403 30.7994 60.6962C34.6698 62.252 38.8107 63.0232 42.9816 62.965C51.3313 62.965 59.339 59.6481 65.2431 53.7439C71.1472 47.8398 74.4641 39.8321 74.4641 31.4825C74.4641 23.1328 71.1472 15.1251 65.2431 9.221C59.339 3.31689 51.3313 0.00614292 42.9816 0.00614292ZM44.2286 14.8904L48.4243 23.3308C48.5154 23.5453 48.6628 23.731 48.851 23.8684C49.0392 24.0058 49.2611 24.0896 49.4931 24.111L58.8058 25.5238C59.0725 25.5579 59.3239 25.6674 59.5305 25.8394C59.7372 26.0114 59.8904 26.2388 59.9723 26.4948C60.0543 26.7509 60.0614 27.025 59.993 27.285C59.9245 27.545 59.7833 27.78 59.586 27.9626L52.7182 34.4986C52.6149 34.6936 52.5609 34.9108 52.5609 35.1314C52.5609 35.352 52.6149 35.5692 52.7182 35.7641L54.0327 45.0276C54.0881 45.2944 54.0651 45.5714 53.9666 45.8254C53.868 46.0794 53.6982 46.2994 53.4775 46.4591C53.2568 46.6188 52.9946 46.7113 52.7226 46.7254C52.4506 46.7396 52.1802 46.6747 51.9442 46.5388L43.6512 42.1527C43.436 42.0552 43.2025 42.0047 42.9663 42.0047C42.73 42.0047 42.4965 42.0552 42.2813 42.1527L33.9884 46.5388C33.7523 46.6747 33.482 46.7396 33.21 46.7254C32.9379 46.7113 32.6757 46.6188 32.455 46.4591C32.2343 46.2994 32.0645 46.0794 31.966 45.8254C31.8675 45.5714 31.8445 45.2944 31.8998 45.0276L33.454 35.7641C33.5216 35.5494 33.5346 35.3212 33.4917 35.1002C33.4488 34.8792 33.3514 34.6724 33.2082 34.4986L26.3343 27.9134C26.1497 27.7291 26.0197 27.4972 25.9588 27.2435C25.8979 26.9898 25.9084 26.7242 25.9892 26.4762C26.07 26.2281 26.2179 26.0072 26.4165 25.838C26.6151 25.6689 26.8567 25.558 27.1145 25.5177L36.4333 24.1601C36.6653 24.1387 36.8872 24.0549 37.0754 23.9175C37.2636 23.7802 37.411 23.5944 37.5021 23.38L41.6978 14.9396C41.8094 14.7 41.9861 14.4966 42.2076 14.3524C42.4291 14.2082 42.6867 14.1291 42.951 14.124C43.2152 14.1188 43.4756 14.188 43.7026 14.3235C43.9295 14.4589 44.1139 14.6554 44.2348 14.8904H44.2286ZM75.5576 53.21C70.257 61.1377 62.2557 66.8686 53.0437 69.3352L61.7175 84.3607C62.021 84.8869 62.4736 85.3113 63.0182 85.5803C63.5629 85.8492 64.175 85.9507 64.7772 85.8718C65.3795 85.7929 65.9448 85.5372 66.4018 85.137C66.8588 84.7368 67.1868 84.2102 67.3445 83.6236L70.4774 71.9582L82.1366 75.0849C82.7233 75.2415 83.3431 75.2207 83.9179 75.0251C84.4928 74.8296 84.9967 74.468 85.3661 73.9862C85.7356 73.5043 85.9539 72.9238 85.9936 72.318C86.0332 71.7121 85.8924 71.1081 85.5889 70.5822L75.5576 53.21ZM32.9502 69.3413C23.7327 66.8939 15.7238 61.1696 10.4241 53.2407L0.411181 70.5822C0.107707 71.1081 -0.0330964 71.7121 0.00655963 72.318C0.0462157 72.9238 0.264552 73.5043 0.633985 73.9862C1.00342 74.468 1.50737 74.8296 2.08218 75.0251C2.65699 75.2207 3.27687 75.2415 3.8635 75.0849L15.5289 71.9582L18.6557 83.6236C18.8133 84.2102 19.1414 84.7368 19.5983 85.137C20.0553 85.5372 20.6206 85.7929 21.2229 85.8718C21.8251 85.9507 22.4373 85.8492 22.9819 85.5803C23.5265 85.3113 23.9791 84.8869 24.2826 84.3607L32.9502 69.3413Z" fill="#FF9500"/>
</svg>
