<svg width="12" height="13" viewBox="0 0 12 13" fill="none" xmlns="http://www.w3.org/2000/svg">
<path d="M2.01 9.28875H2.5625V8.30313H9.4375V9.28875H9.99063V7.14688C9.99063 6.98438 9.94896 6.81458 9.86562 6.6375C9.78229 6.46042 9.66771 6.31917 9.52188 6.21375V5.15375C9.52188 4.86625 9.42542 4.62604 9.2325 4.43313C9.03958 4.24021 8.79937 4.14396 8.51187 4.14438H6.6975C6.53458 4.14438 6.395 4.17396 6.27875 4.23313C6.1625 4.29271 6.06958 4.37375 6 4.47625C5.93042 4.37375 5.8375 4.29271 5.72125 4.23313C5.605 4.17396 5.46542 4.14438 5.3025 4.14438H3.48875C3.20125 4.14438 2.96104 4.24063 2.76813 4.43313C2.57521 4.62563 2.47896 4.86583 2.47938 5.15375V6.21375C2.33354 6.31958 2.21896 6.46083 2.13562 6.6375C2.05229 6.81417 2.01063 6.98396 2.01063 7.14688L2.01 9.28875ZM2.5625 7.75V7.125C2.5625 6.94792 2.6225 6.79958 2.7425 6.68C2.8625 6.56042 3.01083 6.50042 3.1875 6.5H8.8125C8.98958 6.5 9.13812 6.56 9.25812 6.68C9.37812 6.8 9.43792 6.94833 9.4375 7.125V7.75H2.5625ZM3.03125 5.9475V5.08125C3.03125 4.96875 3.06729 4.87667 3.13937 4.805C3.21146 4.73292 3.30375 4.69688 3.41625 4.69688H5.33875C5.45125 4.69688 5.54333 4.73292 5.615 4.805C5.6875 4.87708 5.72375 4.96917 5.72375 5.08125V5.94688L3.03125 5.9475ZM6.27625 5.9475V5.08125C6.27625 4.96875 6.3125 4.87667 6.385 4.805C6.45708 4.73292 6.54917 4.69688 6.66125 4.69688H8.58438C8.69646 4.69688 8.78854 4.73292 8.86062 4.805C8.93271 4.87708 8.96875 4.96917 8.96875 5.08125V5.94688L6.27625 5.9475ZM1.385 12.125C1.09708 12.125 0.856875 12.0288 0.664375 11.8363C0.471875 11.6438 0.375417 11.4035 0.375 11.1156V1.88437C0.375 1.59687 0.471458 1.35688 0.664375 1.16438C0.857292 0.971875 1.09729 0.875417 1.38437 0.875H10.6156C10.9031 0.875 11.1431 0.971458 11.3356 1.16438C11.5281 1.35729 11.6246 1.5975 11.625 1.885V11.1156C11.625 11.4031 11.5285 11.6433 11.3356 11.8363C11.1427 12.0292 10.9027 12.1254 10.6156 12.125H1.385ZM1.385 11.5H10.6156C10.7115 11.5 10.7996 11.46 10.88 11.38C10.9604 11.3 11.0004 11.2117 11 11.115V1.885C11 1.78875 10.96 1.70042 10.88 1.62C10.8 1.53958 10.7119 1.49958 10.6156 1.5H1.38437C1.28854 1.5 1.20042 1.54 1.12 1.62C1.03958 1.7 0.999583 1.78812 1 1.88437V11.1156C1 11.2115 1.04 11.2996 1.12 11.38C1.2 11.4604 1.28812 11.5004 1.38437 11.5" fill="black" fill-opacity="0.5"/>
</svg>
