<svg width="18" height="16" viewBox="0 0 18 16" fill="none" xmlns="http://www.w3.org/2000/svg">
<path fill-rule="evenodd" clip-rule="evenodd" d="M3.68797 1.68664C2.30547 2.31831 1.29297 3.82164 1.29297 5.61414C1.29297 7.44498 2.04297 8.85664 3.1163 10.0666C4.00214 11.0633 5.0738 11.89 6.1188 12.695C6.36769 12.8866 6.61352 13.0778 6.8563 13.2683C7.29464 13.6141 7.68547 13.9166 8.06297 14.1375C8.44047 14.3583 8.74297 14.4583 9.0013 14.4583C9.25963 14.4583 9.56297 14.3583 9.93964 14.1375C10.3171 13.9166 10.708 13.6141 11.1463 13.2683C11.3891 13.0772 11.6349 12.8864 11.8838 12.6958C12.9288 11.8891 14.0005 11.0633 14.8863 10.0666C15.9605 8.85664 16.7096 7.44498 16.7096 5.61414C16.7096 3.82248 15.6971 2.31831 14.3146 1.68664C12.9713 1.07248 11.1663 1.23498 9.4513 3.01748C9.393 3.07796 9.3231 3.12608 9.24578 3.15894C9.16846 3.1918 9.08531 3.20874 9.0013 3.20874C8.91729 3.20874 8.83414 3.1918 8.75682 3.15894C8.6795 3.12608 8.6096 3.07796 8.5513 3.01748C6.8363 1.23498 5.0313 1.07248 3.68797 1.68664ZM9.0013 1.71664C7.07464 -0.00835717 4.91714 -0.250024 3.16797 0.549143C1.32297 1.39498 0.0429688 3.35498 0.0429688 5.61498C0.0429688 7.83581 0.967969 9.53081 2.18214 10.8975C3.1538 11.9916 4.34297 12.9075 5.3938 13.7158C5.63269 13.8991 5.86214 14.0775 6.08214 14.2508C6.50963 14.5875 6.96797 14.9458 7.43214 15.2175C7.8963 15.4891 8.4263 15.7091 9.0013 15.7091C9.5763 15.7091 10.1063 15.4883 10.5705 15.2175C11.0355 14.9458 11.493 14.5875 11.9205 14.2508C12.1405 14.0775 12.3699 13.8991 12.6088 13.7158C13.6588 12.9075 14.8488 11.9908 15.8205 10.8975C17.0346 9.53081 17.9596 7.83581 17.9596 5.61498C17.9596 3.35498 16.6805 1.39498 14.8346 0.55081C13.0855 -0.24919 10.928 -0.00752389 9.0013 1.71664Z" fill="white"/>
</svg>
