<svg width="16" height="15" viewBox="0 0 16 15" fill="none" xmlns="http://www.w3.org/2000/svg">
<path d="M5.62 5V3.36563H6.245V5H5.62ZM5.62 10.0725V7.35563H6.245V10.0725H5.62ZM4.635 13.125C4.355 13.125 4.11667 13.0267 3.92 12.83C3.72333 12.6333 3.625 12.3952 3.625 12.1156V2.88437C3.625 2.60521 3.72333 2.36708 3.92 2.17C4.11667 1.97333 4.355 1.875 4.635 1.875H11.3656C11.6448 1.875 11.8829 1.97333 12.08 2.17C12.2767 2.36667 12.375 2.605 12.375 2.885V12.1156C12.375 12.3948 12.2767 12.6329 12.08 12.83C11.8833 13.0267 11.6452 13.125 11.3656 13.125H4.635ZM4.635 12.5H11.3656C11.4777 12.5 11.5698 12.464 11.6419 12.3919C11.714 12.3198 11.75 12.2277 11.75 12.1156V6.49063H4.25V12.1156C4.25 12.2277 4.28604 12.3198 4.35812 12.3919C4.43021 12.464 4.5225 12.5 4.635 12.5ZM4.25 5.86563H11.75V2.88437C11.75 2.77229 11.714 2.68021 11.6419 2.60812C11.5698 2.53604 11.4777 2.5 11.3656 2.5H4.63437C4.52229 2.5 4.43021 2.53604 4.35812 2.60812C4.28604 2.68021 4.25 2.7725 4.25 2.885V5.86563Z" fill="black" fill-opacity="0.5"/>
</svg>
