<svg width="47" height="47" viewBox="0 0 47 47" fill="none" xmlns="http://www.w3.org/2000/svg">
<path d="M39.3036 3.83621H6.80814C6.44286 3.83113 6.08016 3.89807 5.74075 4.03318C5.40134 4.1683 5.09187 4.36895 4.83001 4.62368C4.56816 4.87841 4.35905 5.18223 4.21462 5.51778C4.0702 5.85333 3.99328 6.21405 3.98828 6.57933V39.4585C3.99328 39.8237 4.0702 40.1845 4.21462 40.52C4.35905 40.8556 4.56816 41.1594 4.83001 41.4141C5.09187 41.6688 5.40134 41.8695 5.74075 42.0046C6.08016 42.1397 6.44286 42.2067 6.80814 42.2016H39.3036C39.6689 42.2067 40.0316 42.1397 40.371 42.0046C40.7104 41.8695 41.0199 41.6688 41.2817 41.4141C41.5436 41.1594 41.7527 40.8556 41.8971 40.52C42.0416 40.1845 42.1185 39.8237 42.1235 39.4585V6.57933C42.1185 6.21405 42.0416 5.85333 41.8971 5.51778C41.7527 5.18223 41.5436 4.87841 41.2817 4.62368C41.0199 4.36895 40.7104 4.1683 40.371 4.03318C40.0316 3.89807 39.6689 3.83113 39.3036 3.83621ZM15.5554 35.948H9.80064V18.6836H15.5554V35.948ZM12.678 16.2666C11.8844 16.2666 11.1232 15.9513 10.562 15.3901C10.0008 14.8289 9.68554 14.0677 9.68554 13.2741C9.68554 12.4804 10.0008 11.7193 10.562 11.1581C11.1232 10.5969 11.8844 10.2816 12.678 10.2816C13.0995 10.2338 13.5263 10.2756 13.9304 10.4041C14.3346 10.5327 14.7071 10.7452 15.0234 11.0277C15.3398 11.3102 15.5929 11.6564 15.7662 12.0435C15.9395 12.4306 16.0291 12.85 16.0291 13.2741C16.0291 13.6982 15.9395 14.1176 15.7662 14.5047C15.5929 14.8918 15.3398 15.238 15.0234 15.5205C14.7071 15.803 14.3346 16.0155 13.9304 16.144C13.5263 16.2726 13.0995 16.3144 12.678 16.2666ZM36.3111 35.948H30.5563V26.6828C30.5563 24.3617 29.7315 22.8463 27.6405 22.8463C26.9934 22.851 26.3633 23.054 25.8351 23.4278C25.3069 23.8017 24.906 24.3285 24.6864 24.9372C24.5363 25.388 24.4712 25.8629 24.4946 26.3375V35.9288H18.7398V18.6644H24.4946V21.1006C25.0174 20.1935 25.7777 19.4462 26.6938 18.9391C27.6098 18.4321 28.6468 18.1846 29.6931 18.2232C33.5296 18.2232 36.3111 20.6978 36.3111 26.0114V35.948Z" fill="white"/>
</svg>
