<svg width="11" height="10" viewBox="0 0 11 10" fill="none" xmlns="http://www.w3.org/2000/svg">
<path fill-rule="evenodd" clip-rule="evenodd" d="M5.74667 9.69101L5.74208 9.69184L5.7125 9.70643L5.70417 9.70809L5.69833 9.70643L5.66875 9.69184C5.66431 9.69046 5.66097 9.69115 5.65875 9.69393L5.65708 9.69809L5.65 9.87643L5.65208 9.88476L5.65625 9.89018L5.69958 9.92101L5.70583 9.92268L5.71083 9.92101L5.75417 9.89018L5.75917 9.88351L5.76083 9.87643L5.75375 9.69851C5.75264 9.69407 5.75028 9.69157 5.74667 9.69101ZM5.85708 9.64393L5.85167 9.64476L5.77458 9.68351L5.77042 9.68768L5.76917 9.69226L5.77667 9.87143L5.77875 9.87643L5.78208 9.87934L5.86583 9.91809C5.87111 9.91948 5.87514 9.91837 5.87792 9.91476L5.87958 9.90893L5.86542 9.65309C5.86403 9.64809 5.86125 9.64504 5.85708 9.64393ZM5.55917 9.64476C5.55733 9.64365 5.55514 9.64329 5.55304 9.64375C5.55094 9.64422 5.54911 9.64548 5.54792 9.64726L5.54542 9.65309L5.53125 9.90893C5.53153 9.91393 5.53389 9.91726 5.53833 9.91893L5.54458 9.91809L5.62833 9.87934L5.6325 9.87601L5.63417 9.87143L5.64125 9.69226L5.64 9.68726L5.63583 9.68309L5.55917 9.64476Z" fill="black" fill-opacity="0.5"/>
<path fill-rule="evenodd" clip-rule="evenodd" d="M5.5 0.833008C6.49456 0.833008 7.44839 1.2281 8.15165 1.93136C8.85491 2.63462 9.25 3.58845 9.25 4.58301C9.25 5.86384 8.55167 6.91218 7.81583 7.66426C7.4482 8.03595 7.04705 8.37294 6.6175 8.67093L6.44 8.79176L6.35667 8.84717L6.19958 8.94718L6.05958 9.03259L5.88625 9.13342C5.7686 9.20058 5.63547 9.2359 5.5 9.2359C5.36453 9.2359 5.2314 9.20058 5.11375 9.13342L4.94042 9.03259L4.72375 8.89926L4.64375 8.84717L4.47292 8.73343C4.00951 8.41989 3.57788 8.0618 3.18417 7.66426C2.44833 6.91176 1.75 5.86384 1.75 4.58301C1.75 3.58845 2.14509 2.63462 2.84835 1.93136C3.55161 1.2281 4.50544 0.833008 5.5 0.833008ZM5.5 1.66634C4.72645 1.66634 3.98459 1.97363 3.43761 2.52061C2.89062 3.06759 2.58333 3.80946 2.58333 4.58301C2.58333 5.55051 3.11333 6.39967 3.77958 7.08134C4.06605 7.37134 4.37569 7.6375 4.70542 7.87717L4.89625 8.01301C4.95792 8.05606 5.01722 8.09606 5.07417 8.13301L5.23667 8.23717L5.37958 8.32426L5.5 8.39468L5.68958 8.28259L5.8425 8.18676C5.92389 8.13509 6.01097 8.07718 6.10375 8.01301L6.29458 7.87717C6.62431 7.6375 6.93395 7.37134 7.22042 7.08134C7.88667 6.40009 8.41667 5.55051 8.41667 4.58301C8.41667 3.80946 8.10938 3.06759 7.56239 2.52061C7.01541 1.97363 6.27355 1.66634 5.5 1.66634ZM5.5 2.91634C5.94203 2.91634 6.36595 3.09194 6.67851 3.4045C6.99107 3.71706 7.16667 4.14098 7.16667 4.58301C7.16667 5.02504 6.99107 5.44896 6.67851 5.76152C6.36595 6.07408 5.94203 6.24967 5.5 6.24967C5.05797 6.24967 4.63405 6.07408 4.32149 5.76152C4.00893 5.44896 3.83333 5.02504 3.83333 4.58301C3.83333 4.14098 4.00893 3.71706 4.32149 3.4045C4.63405 3.09194 5.05797 2.91634 5.5 2.91634ZM5.5 3.74967C5.27899 3.74967 5.06702 3.83747 4.91074 3.99375C4.75446 4.15003 4.66667 4.36199 4.66667 4.58301C4.66667 4.80402 4.75446 5.01598 4.91074 5.17226C5.06702 5.32854 5.27899 5.41634 5.5 5.41634C5.72101 5.41634 5.93298 5.32854 6.08926 5.17226C6.24554 5.01598 6.33333 4.80402 6.33333 4.58301C6.33333 4.36199 6.24554 4.15003 6.08926 3.99375C5.93298 3.83747 5.72101 3.74967 5.5 3.74967Z" fill="black" fill-opacity="0.5"/>
</svg>
