<svg width="12" height="9" viewBox="0 0 12 9" fill="none" xmlns="http://www.w3.org/2000/svg">
<path d="M3 0C2.60218 0 2.22064 0.158035 1.93934 0.43934C1.65804 0.720644 1.5 1.10218 1.5 1.5V2.2875C1.07649 2.37395 0.695852 2.60407 0.42251 2.93891C0.149169 3.27375 -8.81815e-05 3.69276 3.90856e-08 4.125V6C3.90856e-08 6.39782 0.158035 6.77936 0.43934 7.06066C0.720644 7.34196 1.10218 7.5 1.5 7.5V8.625C1.5 8.72446 1.53951 8.81984 1.60984 8.89017C1.68016 8.96049 1.77554 9 1.875 9C1.97446 9 2.06984 8.96049 2.14016 8.89017C2.21049 8.81984 2.25 8.72446 2.25 8.625V7.5H9.75V8.625C9.75 8.72446 9.78951 8.81984 9.85983 8.89017C9.93016 8.96049 10.0255 9 10.125 9C10.2245 9 10.3198 8.96049 10.3902 8.89017C10.4605 8.81984 10.5 8.72446 10.5 8.625V7.5C10.8978 7.5 11.2794 7.34196 11.5607 7.06066C11.842 6.77936 12 6.39782 12 6V4.125C12.0001 3.69276 11.8508 3.27375 11.5775 2.93891C11.3041 2.60407 10.9235 2.37395 10.5 2.2875V1.5C10.5 1.10218 10.342 0.720644 10.0607 0.43934C9.77936 0.158035 9.39782 0 9 0H3ZM9.75 2.2875C9.015 2.43675 8.43675 3.015 8.2875 3.75H3.7125C3.63901 3.38967 3.46118 3.0589 3.20114 2.79886C2.9411 2.53882 2.61033 2.36099 2.25 2.2875V1.5C2.25 1.30109 2.32902 1.11032 2.46967 0.96967C2.61032 0.829018 2.80109 0.75 3 0.75H9C9.19891 0.75 9.38968 0.829018 9.53033 0.96967C9.67098 1.11032 9.75 1.30109 9.75 1.5V2.2875ZM10.5 6.75H1.5C1.30109 6.75 1.11032 6.67098 0.96967 6.53033C0.829018 6.38968 0.75 6.19891 0.75 6V4.125C0.75 3.82663 0.868526 3.54048 1.0795 3.3295C1.29048 3.11853 1.57663 3 1.875 3C2.17337 3 2.45952 3.11853 2.6705 3.3295C2.88147 3.54048 3 3.82663 3 4.125C3 4.22446 3.03951 4.31984 3.10984 4.39017C3.18016 4.46049 3.27554 4.5 3.375 4.5H8.625C8.72446 4.5 8.81984 4.46049 8.89017 4.39017C8.96049 4.31984 9 4.22446 9 4.125C9 3.82663 9.11853 3.54048 9.3295 3.3295C9.54048 3.11853 9.82663 3 10.125 3C10.4234 3 10.7095 3.11853 10.9205 3.3295C11.1315 3.54048 11.25 3.82663 11.25 4.125V6C11.25 6.19891 11.171 6.38968 11.0303 6.53033C10.8897 6.67098 10.6989 6.75 10.5 6.75Z" fill="black" fill-opacity="0.5"/>
</svg>
