<svg width="9" height="11" viewBox="0 0 9 11" fill="none" xmlns="http://www.w3.org/2000/svg">
<path d="M4.125 2.5C4.125 2.59946 4.08549 2.69484 4.01516 2.76516C3.94484 2.83549 3.84946 2.875 3.75 2.875H3C2.90054 2.875 2.80516 2.83549 2.73484 2.76516C2.66451 2.69484 2.625 2.59946 2.625 2.5C2.625 2.40054 2.66451 2.30516 2.73484 2.23484C2.80516 2.16451 2.90054 2.125 3 2.125H3.75C3.84946 2.125 3.94484 2.16451 4.01516 2.23484C4.08549 2.30516 4.125 2.40054 4.125 2.5ZM6.5775 8.74094L6.7425 9.89406C6.75768 10.0004 6.74982 10.1088 6.71947 10.2119C6.68911 10.315 6.63697 10.4103 6.56656 10.4915C6.49616 10.5726 6.40913 10.6377 6.31138 10.6823C6.21364 10.7269 6.10744 10.75 6 10.75H3C2.89256 10.75 2.78636 10.7269 2.68862 10.6823C2.59087 10.6377 2.50384 10.5726 2.43344 10.4915C2.36303 10.4103 2.31089 10.315 2.28053 10.2119C2.25018 10.1088 2.24232 10.0004 2.2575 9.89406L2.4225 8.74094C1.69261 8.36054 1.08091 7.78742 0.653824 7.08383C0.226743 6.38023 0.000614584 5.57307 0 4.75C0 4.65054 0.0395089 4.55516 0.109835 4.48484C0.180161 4.41451 0.275544 4.375 0.375 4.375H1.125V1.375C1.125 1.17609 1.20402 0.985322 1.34467 0.84467C1.48532 0.704018 1.67609 0.625 1.875 0.625H7.125C7.32391 0.625 7.51468 0.704018 7.65533 0.84467C7.79598 0.985322 7.875 1.17609 7.875 1.375V4.375H8.625C8.72446 4.375 8.81984 4.41451 8.89017 4.48484C8.96049 4.55516 9 4.65054 9 4.75C8.99939 5.57307 8.77326 6.38023 8.34618 7.08383C7.9191 7.78742 7.30739 8.36054 6.5775 8.74094ZM1.875 4.375H7.125V1.375H1.875V4.375ZM5.86266 9.03906C4.97599 9.3203 4.02401 9.3203 3.13734 9.03906L3 10H6L5.86266 9.03906ZM8.23125 5.125H0.76875C0.861606 6.05007 1.29479 6.90767 1.98425 7.53139C2.67371 8.1551 3.57028 8.50047 4.5 8.50047C5.42972 8.50047 6.32629 8.1551 7.01575 7.53139C7.70521 6.90767 8.13839 6.05007 8.23125 5.125Z" fill="black" fill-opacity="0.5"/>
</svg>
